<svg width="512" height="512" viewBox="0 0 512 512" fill="none" xmlns="http://www.w3.org/2000/svg">
<rect x="45" y="50" width="422" height="412" fill="black"/>
<path d="M169.7 190.6H343.3V212.4H169.7V190.6ZM191.4 147H321.6V168.8H191.4V147ZM343.3 234.2H169.7C157.765 234.2 148 244.01 148 256V343.2C148 355.19 157.765 365 169.7 365H343.3C355.235 365 365 355.19 365 343.2V256C365 244.01 355.235 234.2 343.3 234.2ZM343.3 343.2H169.7V256H343.3V343.2ZM234.8 263.957V335.134L299.9 299.6L234.8 263.957Z" fill="white"/>
</svg>
