<svg width="512" height="512" viewBox="0 0 512 512" fill="none" xmlns="http://www.w3.org/2000/svg">
<rect x="45" y="50" width="422" height="412" fill="black"/>
<path d="M141.668 169.6H371.011V198.4H141.668V169.6ZM170.336 112H342.343V140.8H170.336V112ZM371.011 227.2H141.668C125.901 227.2 113 240.16 113 256V371.2C113 387.04 125.901 400 141.668 400H371.011C386.778 400 399.679 387.04 399.679 371.2V256C399.679 240.16 386.778 227.2 371.011 227.2ZM371.011 371.2H141.668V256H371.011V371.2ZM227.672 266.512V360.544L313.675 313.6L227.672 266.512Z" fill="white"/>
</svg>
